<svg xmlns="http://www.w3.org/2000/svg" viewBox="0 0 64 64">
  <title>Aglaea</title>
  <rect width="64" height="64" rx="14" fill="#101211" />
  <path d="M14 36c0-13 8-22 18-22s18 9 18 22c0 9-7 16-18 16s-18-7-18-16Z" fill="#63c174" />
  <path d="M32 13c7 6 10 12 10 19 0 10-6 17-10 21-4-4-10-11-10-21 0-7 3-13 10-19Z" fill="#2f7d46" />
  <path d="M20 34h24" stroke="#fbfdfc" stroke-width="5" stroke-linecap="round" />
  <circle cx="32" cy="34" r="7" fill="#101211" stroke="#fbfdfc" stroke-width="4" />
  <circle cx="32" cy="34" r="2.5" fill="#ffc53d" />
</svg>
